<mxfile host="Electron" modified="2023-08-09T18:08:41.610Z" agent="Mozilla/5.0 (Windows NT 10.0; Win64; x64) AppleWebKit/537.36 (KHTML, like Gecko) draw.io/21.6.5 Chrome/114.0.5735.243 Electron/25.3.1 Safari/537.36" etag="CjIF17PtYGglVk-1ZwvC" version="21.6.5" type="device">
  <diagram name="Страница 1" id="Ju16TelSEnIju_zVoks3">
    <mxGraphModel dx="2074" dy="1197" grid="1" gridSize="10" guides="1" tooltips="1" connect="1" arrows="1" fold="1" page="1" pageScale="1" pageWidth="827" pageHeight="583" math="0" shadow="0">
      <root>
        <mxCell id="0" />
        <mxCell id="1" parent="0" />
        <mxCell id="hu0CvN4oynNQu5v8E6Ta-19" value="" style="swimlane;startSize=0;" vertex="1" parent="1">
          <mxGeometry x="40" width="1560" height="80" as="geometry" />
        </mxCell>
        <mxCell id="hu0CvN4oynNQu5v8E6Ta-1" value="" style="swimlane;startSize=0;labelBackgroundColor=none;" vertex="1" parent="hu0CvN4oynNQu5v8E6Ta-19">
          <mxGeometry x="40" y="20" width="200" height="40" as="geometry">
            <mxRectangle x="40" y="20" width="50" height="40" as="alternateBounds" />
          </mxGeometry>
        </mxCell>
        <mxCell id="hu0CvN4oynNQu5v8E6Ta-2" value="Logo" style="text;html=1;align=center;verticalAlign=middle;resizable=0;points=[];autosize=1;strokeColor=none;fillColor=none;fontSize=20;labelBackgroundColor=none;" vertex="1" parent="hu0CvN4oynNQu5v8E6Ta-1">
          <mxGeometry x="60" width="70" height="40" as="geometry" />
        </mxCell>
        <mxCell id="hu0CvN4oynNQu5v8E6Ta-7" value="" style="swimlane;startSize=0;labelBackgroundColor=none;" vertex="1" parent="hu0CvN4oynNQu5v8E6Ta-19">
          <mxGeometry x="440" y="20" width="120" height="40" as="geometry" />
        </mxCell>
        <mxCell id="hu0CvN4oynNQu5v8E6Ta-8" value="Home" style="text;html=1;align=center;verticalAlign=middle;resizable=0;points=[];autosize=1;strokeColor=none;fillColor=none;fontSize=18;labelBackgroundColor=none;" vertex="1" parent="hu0CvN4oynNQu5v8E6Ta-7">
          <mxGeometry x="25" width="70" height="40" as="geometry" />
        </mxCell>
        <mxCell id="hu0CvN4oynNQu5v8E6Ta-9" value="" style="swimlane;startSize=0;labelBackgroundColor=none;" vertex="1" parent="hu0CvN4oynNQu5v8E6Ta-19">
          <mxGeometry x="580" y="20" width="130" height="40" as="geometry" />
        </mxCell>
        <mxCell id="hu0CvN4oynNQu5v8E6Ta-10" value="&lt;font style=&quot;font-size: 18px;&quot;&gt;Market Insight&lt;/font&gt;" style="text;html=1;align=center;verticalAlign=middle;resizable=0;points=[];autosize=1;strokeColor=none;fillColor=none;" vertex="1" parent="hu0CvN4oynNQu5v8E6Ta-9">
          <mxGeometry x="-5" width="140" height="40" as="geometry" />
        </mxCell>
        <mxCell id="hu0CvN4oynNQu5v8E6Ta-11" value="" style="swimlane;startSize=0;labelBackgroundColor=none;" vertex="1" parent="hu0CvN4oynNQu5v8E6Ta-19">
          <mxGeometry x="720" y="20" width="120" height="40" as="geometry" />
        </mxCell>
        <mxCell id="hu0CvN4oynNQu5v8E6Ta-12" value="&lt;font style=&quot;font-size: 18px;&quot;&gt;Statistics&lt;/font&gt;" style="text;html=1;align=center;verticalAlign=middle;resizable=0;points=[];autosize=1;strokeColor=none;fillColor=none;" vertex="1" parent="hu0CvN4oynNQu5v8E6Ta-11">
          <mxGeometry x="10" width="100" height="40" as="geometry" />
        </mxCell>
        <mxCell id="hu0CvN4oynNQu5v8E6Ta-13" value="" style="swimlane;startSize=0;labelBackgroundColor=none;" vertex="1" parent="hu0CvN4oynNQu5v8E6Ta-19">
          <mxGeometry x="860" y="20" width="120" height="40" as="geometry" />
        </mxCell>
        <mxCell id="hu0CvN4oynNQu5v8E6Ta-14" value="&lt;font style=&quot;font-size: 18px;&quot;&gt;Analytics&lt;/font&gt;" style="text;html=1;align=center;verticalAlign=middle;resizable=0;points=[];autosize=1;strokeColor=none;fillColor=none;" vertex="1" parent="hu0CvN4oynNQu5v8E6Ta-13">
          <mxGeometry x="10" width="100" height="40" as="geometry" />
        </mxCell>
        <mxCell id="hu0CvN4oynNQu5v8E6Ta-15" value="" style="swimlane;startSize=0;labelBackgroundColor=none;" vertex="1" parent="hu0CvN4oynNQu5v8E6Ta-19">
          <mxGeometry x="1000" y="20" width="120" height="40" as="geometry" />
        </mxCell>
        <mxCell id="hu0CvN4oynNQu5v8E6Ta-16" value="Contacts" style="text;html=1;align=center;verticalAlign=middle;resizable=0;points=[];autosize=1;strokeColor=none;fillColor=none;fontSize=18;labelBackgroundColor=none;" vertex="1" parent="hu0CvN4oynNQu5v8E6Ta-15">
          <mxGeometry x="15" width="90" height="40" as="geometry" />
        </mxCell>
        <mxCell id="hu0CvN4oynNQu5v8E6Ta-17" value="" style="swimlane;startSize=0;labelBackgroundColor=none;" vertex="1" parent="hu0CvN4oynNQu5v8E6Ta-19">
          <mxGeometry x="1140" y="20" width="120" height="40" as="geometry" />
        </mxCell>
        <mxCell id="hu0CvN4oynNQu5v8E6Ta-18" value="&lt;font style=&quot;font-size: 18px;&quot;&gt;My Account&lt;/font&gt;" style="text;html=1;align=center;verticalAlign=middle;resizable=0;points=[];autosize=1;strokeColor=none;fillColor=none;labelBackgroundColor=none;" vertex="1" parent="hu0CvN4oynNQu5v8E6Ta-17">
          <mxGeometry x="1" width="120" height="40" as="geometry" />
        </mxCell>
        <mxCell id="hu0CvN4oynNQu5v8E6Ta-5" value="" style="swimlane;startSize=0;labelBackgroundColor=none;" vertex="1" parent="hu0CvN4oynNQu5v8E6Ta-19">
          <mxGeometry x="1360" y="20" width="80" height="40" as="geometry" />
        </mxCell>
        <mxCell id="hu0CvN4oynNQu5v8E6Ta-6" value="Login" style="text;html=1;align=center;verticalAlign=middle;resizable=0;points=[];autosize=1;strokeColor=none;fillColor=none;fontSize=18;labelBackgroundColor=none;" vertex="1" parent="hu0CvN4oynNQu5v8E6Ta-5">
          <mxGeometry x="5" width="70" height="40" as="geometry" />
        </mxCell>
        <mxCell id="hu0CvN4oynNQu5v8E6Ta-4" value="Register" style="text;html=1;align=center;verticalAlign=middle;resizable=0;points=[];autosize=1;strokeColor=none;fillColor=none;fontSize=18;labelBackgroundColor=none;" vertex="1" parent="hu0CvN4oynNQu5v8E6Ta-19">
          <mxGeometry x="1457.5" y="20" width="90" height="40" as="geometry" />
        </mxCell>
        <mxCell id="hu0CvN4oynNQu5v8E6Ta-3" value="" style="swimlane;startSize=0;labelBackgroundColor=none;" vertex="1" parent="hu0CvN4oynNQu5v8E6Ta-19">
          <mxGeometry x="1460" y="20" width="85" height="40" as="geometry" />
        </mxCell>
        <mxCell id="hu0CvN4oynNQu5v8E6Ta-21" value="" style="swimlane;startSize=0;" vertex="1" parent="1">
          <mxGeometry x="40" y="80" width="1560" height="80" as="geometry" />
        </mxCell>
        <mxCell id="hu0CvN4oynNQu5v8E6Ta-22" value="&lt;font style=&quot;font-size: 18px;&quot;&gt;Description&lt;/font&gt;" style="text;html=1;align=center;verticalAlign=middle;resizable=0;points=[];autosize=1;strokeColor=none;fillColor=none;" vertex="1" parent="1">
          <mxGeometry x="135" y="93" width="110" height="40" as="geometry" />
        </mxCell>
        <mxCell id="hu0CvN4oynNQu5v8E6Ta-23" value="" style="swimlane;startSize=0;" vertex="1" parent="1">
          <mxGeometry x="40" y="160" width="1560" height="120" as="geometry" />
        </mxCell>
        <mxCell id="hu0CvN4oynNQu5v8E6Ta-24" value="" style="swimlane;startSize=0;" vertex="1" parent="hu0CvN4oynNQu5v8E6Ta-23">
          <mxGeometry x="40" y="40" width="120" height="40" as="geometry" />
        </mxCell>
        <mxCell id="hu0CvN4oynNQu5v8E6Ta-25" value="From" style="text;html=1;align=center;verticalAlign=middle;resizable=0;points=[];autosize=1;strokeColor=none;fillColor=none;" vertex="1" parent="hu0CvN4oynNQu5v8E6Ta-24">
          <mxGeometry x="35" y="5" width="50" height="30" as="geometry" />
        </mxCell>
        <mxCell id="hu0CvN4oynNQu5v8E6Ta-26" value="" style="swimlane;startSize=0;" vertex="1" parent="hu0CvN4oynNQu5v8E6Ta-23">
          <mxGeometry x="200" y="40" width="120" height="40" as="geometry" />
        </mxCell>
        <mxCell id="hu0CvN4oynNQu5v8E6Ta-27" value="To" style="text;html=1;align=center;verticalAlign=middle;resizable=0;points=[];autosize=1;strokeColor=none;fillColor=none;" vertex="1" parent="hu0CvN4oynNQu5v8E6Ta-26">
          <mxGeometry x="40" y="5" width="40" height="30" as="geometry" />
        </mxCell>
        <mxCell id="hu0CvN4oynNQu5v8E6Ta-28" value="" style="swimlane;startSize=0;" vertex="1" parent="hu0CvN4oynNQu5v8E6Ta-23">
          <mxGeometry x="360" y="40" width="120" height="40" as="geometry" />
        </mxCell>
        <mxCell id="hu0CvN4oynNQu5v8E6Ta-29" value="Stock" style="text;html=1;align=center;verticalAlign=middle;resizable=0;points=[];autosize=1;strokeColor=none;fillColor=none;" vertex="1" parent="hu0CvN4oynNQu5v8E6Ta-28">
          <mxGeometry x="35" y="5" width="50" height="30" as="geometry" />
        </mxCell>
        <mxCell id="hu0CvN4oynNQu5v8E6Ta-30" value="" style="swimlane;startSize=0;" vertex="1" parent="hu0CvN4oynNQu5v8E6Ta-23">
          <mxGeometry x="520" y="40" width="120" height="40" as="geometry" />
        </mxCell>
        <mxCell id="hu0CvN4oynNQu5v8E6Ta-31" value="Amount $" style="text;html=1;align=center;verticalAlign=middle;resizable=0;points=[];autosize=1;strokeColor=none;fillColor=none;" vertex="1" parent="hu0CvN4oynNQu5v8E6Ta-30">
          <mxGeometry x="25" y="5" width="70" height="30" as="geometry" />
        </mxCell>
        <mxCell id="hu0CvN4oynNQu5v8E6Ta-32" value="" style="swimlane;startSize=0;" vertex="1" parent="hu0CvN4oynNQu5v8E6Ta-23">
          <mxGeometry x="680" y="40" width="120" height="40" as="geometry" />
        </mxCell>
        <mxCell id="hu0CvN4oynNQu5v8E6Ta-33" value="Period, Days" style="text;html=1;align=center;verticalAlign=middle;resizable=0;points=[];autosize=1;strokeColor=none;fillColor=none;" vertex="1" parent="hu0CvN4oynNQu5v8E6Ta-32">
          <mxGeometry x="15" y="5" width="90" height="30" as="geometry" />
        </mxCell>
        <mxCell id="hu0CvN4oynNQu5v8E6Ta-34" value="" style="swimlane;startSize=0;" vertex="1" parent="1">
          <mxGeometry x="1400" y="200" width="120" height="40" as="geometry" />
        </mxCell>
        <mxCell id="hu0CvN4oynNQu5v8E6Ta-35" value="Calculate" style="text;html=1;align=center;verticalAlign=middle;resizable=0;points=[];autosize=1;strokeColor=none;fillColor=none;" vertex="1" parent="hu0CvN4oynNQu5v8E6Ta-34">
          <mxGeometry x="25" y="5" width="70" height="30" as="geometry" />
        </mxCell>
        <mxCell id="hu0CvN4oynNQu5v8E6Ta-36" value="" style="swimlane;startSize=0;" vertex="1" parent="1">
          <mxGeometry x="40" y="280" width="1240" height="440" as="geometry" />
        </mxCell>
        <mxCell id="hu0CvN4oynNQu5v8E6Ta-37" value="&lt;font style=&quot;font-size: 18px;&quot;&gt;Chart&lt;/font&gt;" style="text;html=1;align=center;verticalAlign=middle;resizable=0;points=[];autosize=1;strokeColor=none;fillColor=none;" vertex="1" parent="hu0CvN4oynNQu5v8E6Ta-36">
          <mxGeometry x="545" y="160" width="70" height="40" as="geometry" />
        </mxCell>
        <mxCell id="hu0CvN4oynNQu5v8E6Ta-38" value="" style="swimlane;startSize=0;" vertex="1" parent="1">
          <mxGeometry x="1280" y="280" width="320" height="440" as="geometry" />
        </mxCell>
        <mxCell id="hu0CvN4oynNQu5v8E6Ta-39" value="&lt;font style=&quot;font-size: 18px;&quot;&gt;Stocks&lt;/font&gt;" style="text;html=1;align=center;verticalAlign=middle;resizable=0;points=[];autosize=1;strokeColor=none;fillColor=none;" vertex="1" parent="hu0CvN4oynNQu5v8E6Ta-38">
          <mxGeometry x="125" y="80" width="80" height="40" as="geometry" />
        </mxCell>
        <mxCell id="hu0CvN4oynNQu5v8E6Ta-40" value="" style="swimlane;startSize=0;" vertex="1" parent="1">
          <mxGeometry x="520" y="720" width="1080" height="320" as="geometry" />
        </mxCell>
        <mxCell id="hu0CvN4oynNQu5v8E6Ta-42" value="&lt;font style=&quot;font-size: 18px;&quot;&gt;Description&lt;/font&gt;" style="text;html=1;align=center;verticalAlign=middle;resizable=0;points=[];autosize=1;strokeColor=none;fillColor=none;" vertex="1" parent="hu0CvN4oynNQu5v8E6Ta-40">
          <mxGeometry x="450" y="140" width="110" height="40" as="geometry" />
        </mxCell>
        <mxCell id="hu0CvN4oynNQu5v8E6Ta-41" value="" style="swimlane;startSize=0;" vertex="1" parent="1">
          <mxGeometry x="40" y="720" width="480" height="320" as="geometry" />
        </mxCell>
        <mxCell id="hu0CvN4oynNQu5v8E6Ta-43" value="&lt;font style=&quot;font-size: 18px;&quot;&gt;Image&lt;/font&gt;" style="text;html=1;align=center;verticalAlign=middle;resizable=0;points=[];autosize=1;strokeColor=none;fillColor=none;" vertex="1" parent="hu0CvN4oynNQu5v8E6Ta-41">
          <mxGeometry x="190" y="135" width="70" height="40" as="geometry" />
        </mxCell>
        <mxCell id="hu0CvN4oynNQu5v8E6Ta-44" value="" style="swimlane;startSize=0;" vertex="1" parent="1">
          <mxGeometry x="40" y="1040" width="1560" height="80" as="geometry" />
        </mxCell>
        <mxCell id="hu0CvN4oynNQu5v8E6Ta-45" value="&lt;font style=&quot;font-size: 18px;&quot;&gt;Footer&lt;/font&gt;" style="text;html=1;align=center;verticalAlign=middle;resizable=0;points=[];autosize=1;strokeColor=none;fillColor=none;" vertex="1" parent="1">
          <mxGeometry x="780" y="1063" width="80" height="40" as="geometry" />
        </mxCell>
      </root>
    </mxGraphModel>
  </diagram>
</mxfile>
